<svg xmlns="http://www.w3.org/2000/svg" viewBox="0 -1490 10011.9 5069.02" width="489" height="248">
<title>Intellectual Frontiers Studios, one color, set in fonts/InterVariable.ttf</title>
<path fill="currentColor" d="M387.8 -1490L387.8 0L0.2 0L0.2 -1490L387.8 -1490Z M857.3 -567L857.3 0L484.9 0L484.9 -1056L852.4 -1056L852.4 -769.2L800.9 -769.2Q850.2 -907.8 943.2 -993.7Q1036.1 -1079.5 1191.9 -1079.5Q1308.6 -1079.5 1388.7 -1029.5Q1468.8 -979.5 1510.3 -886.5Q1551.8 -793.5 1551.8 -664.8L1551.8 0L1179.4 0L1179.4 -584.2Q1179.4 -671 1138.1 -717.2Q1096.8 -763.4 1020 -763.4Q969.4 -763.4 932.8 -742Q896.2 -720.7 876.7 -677.1Q857.3 -633.5 857.3 -567Z M2348.7 -1056L2348.7 -771L1579.6 -771L1579.6 -1056L2348.7 -1056ZM1758.8 -1344L2131.2 -1344L2131.2 -370.4Q2131.2 -321.7 2150.5 -303.4Q2169.8 -285 2226 -285Q2252.6 -285 2292.3 -285Q2332 -285 2348.7 -285L2348.7 0Q2321.8 0 2263.1 0Q2204.4 0 2141.4 0Q1942 0 1850.4 -73.6Q1758.8 -147.2 1758.8 -306.6L1758.8 -1344Z M2898.8 24Q2735.9 24 2611 -46.6Q2486.1 -117.1 2416.2 -242.1Q2346.4 -367 2346.4 -527.8Q2346.4 -689.6 2416.2 -814.2Q2486 -938.8 2608.5 -1009.4Q2731 -1080 2890.4 -1080Q3010.9 -1080 3110.4 -1040.4Q3209.9 -1000.9 3282.6 -928.2Q3355.3 -855.5 3394.9 -756.2Q3434.6 -656.9 3434.6 -537.4L3434.6 -437.6L2461 -437.6L2461 -652.3L3263 -652.3L3092.4 -611.8Q3092.4 -674.1 3069.3 -718.4Q3046.2 -762.7 3003.4 -786.4Q2960.7 -810.1 2900 -810.1Q2840.4 -810.1 2797.3 -786.4Q2754.2 -762.7 2731.1 -718.4Q2708 -674.1 2708 -611.8L2708 -447.4Q2708 -383.3 2732.3 -336.3Q2756.6 -289.2 2802.6 -264.2Q2848.6 -239.1 2912.9 -239.1Q2959.8 -239.1 2997 -251.6Q3034.2 -264.1 3059.8 -287.2Q3085.4 -310.3 3097 -341.5L3428.9 -341.5Q3409.8 -234.4 3335.4 -152.1Q3260.9 -69.9 3147.9 -23Q3035 24 2898.8 24Z M3860.5 -1490L3860.5 0L3488.1 0L3488.1 -1490L3860.5 -1490Z M4332.6 -1490L4332.6 0L3960.2 0L3960.2 -1490L4332.6 -1490Z M4943.1 24Q4780.2 24 4655.3 -46.6Q4530.4 -117.1 4460.5 -242.1Q4390.6 -367 4390.6 -527.8Q4390.6 -689.6 4460.4 -814.2Q4530.2 -938.8 4652.7 -1009.4Q4775.2 -1080 4934.6 -1080Q5055.2 -1080 5154.7 -1040.4Q5254.2 -1000.9 5326.8 -928.2Q5399.5 -855.5 5439.2 -756.2Q5478.8 -656.9 5478.8 -537.4L5478.8 -437.6L4505.2 -437.6L4505.2 -652.3L5307.3 -652.3L5136.6 -611.8Q5136.6 -674.1 5113.5 -718.4Q5090.4 -762.7 5047.7 -786.4Q5005 -810.1 4944.3 -810.1Q4884.6 -810.1 4841.5 -786.4Q4798.4 -762.7 4775.3 -718.4Q4752.2 -674.1 4752.2 -611.8L4752.2 -447.4Q4752.2 -383.3 4776.5 -336.3Q4800.8 -289.2 4846.8 -264.2Q4892.9 -239.1 4957.2 -239.1Q5004 -239.1 5041.2 -251.6Q5078.4 -264.1 5104 -287.2Q5129.6 -310.3 5141.2 -341.5L5473.2 -341.5Q5454 -234.4 5379.6 -152.1Q5305.2 -69.9 5192.2 -23Q5079.2 24 4943.1 24Z M6045.8 24Q5879.6 24 5754.5 -45.2Q5629.5 -114.4 5560.1 -238.8Q5490.7 -363.2 5490.7 -527.8Q5490.7 -692.4 5560.1 -817Q5629.5 -941.5 5754.5 -1010.8Q5879.6 -1080 6045.8 -1080Q6158.7 -1080 6253.7 -1047.2Q6348.6 -1014.4 6418.6 -954.4Q6488.5 -894.3 6529 -811.9Q6569.6 -729.5 6574.4 -629.3L6217.6 -629.3Q6213.9 -665.7 6201.1 -695Q6188.4 -724.4 6167.1 -745.4Q6145.8 -766.4 6116.9 -777.6Q6088.1 -788.7 6052.8 -788.7Q5994.3 -788.7 5952.7 -757.3Q5911.2 -725.8 5889 -667.5Q5866.8 -609.2 5866.8 -527.8Q5866.8 -447.4 5889 -388.7Q5911.2 -330.1 5953.1 -298.7Q5995.1 -267.3 6052.8 -267.3Q6088.1 -267.3 6116.8 -278.8Q6145.5 -290.2 6166.6 -311.3Q6187.6 -332.3 6200.4 -362.5Q6213.2 -392.8 6217.2 -430.2L6574.4 -430.2Q6573.1 -330.2 6533.9 -247.4Q6494.7 -164.6 6424.2 -103.6Q6353.8 -42.6 6257.5 -9.3Q6161.2 24 6045.8 24Z M7327.2 -1056L7327.2 -771L6558 -771L6558 -1056L7327.2 -1056ZM6737.2 -1344L7109.6 -1344L7109.6 -370.4Q7109.6 -321.7 7129 -303.4Q7148.3 -285 7204.5 -285Q7231 -285 7270.7 -285Q7310.4 -285 7327.2 -285L7327.2 0Q7300.3 0 7241.6 0Q7182.8 0 7119.9 0Q6920.5 0 6828.9 -73.6Q6737.2 -147.2 6737.2 -306.6L6737.2 -1344Z M7737.4 23.5Q7621.7 23.5 7541.1 -26.5Q7460.5 -76.5 7419 -169.6Q7377.5 -262.6 7377.5 -391.2L7377.5 -1056L7749.9 -1056L7749.9 -471.8Q7749.9 -385.9 7791.7 -339.3Q7833.5 -292.6 7909.3 -292.6Q7959.9 -292.6 7996.5 -314Q8033.1 -335.3 8052.5 -379Q8072 -422.6 8072 -489L8072 -1056L8444.4 -1056L8444.4 0L8076.9 0L8076.9 -286.8L8128.4 -286.8Q8079 -148.3 7986.5 -62.4Q7894 23.5 7737.4 23.5Z M8867.4 18.6Q8761.5 18.6 8680.2 -15.6Q8599 -49.8 8552.7 -119.1Q8506.4 -188.4 8506.4 -293.4Q8506.4 -382.7 8537.9 -443.6Q8569.5 -504.6 8625.5 -543.3Q8681.4 -581.9 8755.6 -602Q8829.8 -622.1 8914.1 -628.6Q9008 -635.5 9064.7 -645.6Q9121.4 -655.7 9146.3 -673.4Q9171.3 -691.2 9171.3 -721.5L9171.3 -726.2Q9171.3 -753.4 9154.8 -773.7Q9138.3 -794 9108.7 -805.5Q9079 -816.9 9037.6 -816.9Q8994.5 -816.9 8962.7 -804.3Q8930.8 -791.6 8912.7 -767.7Q8894.6 -743.7 8890.6 -710.1L8547.8 -710.1Q8556.3 -827.3 8615.7 -909.9Q8675.1 -992.4 8784.6 -1036Q8894.1 -1079.5 9051.7 -1079.5Q9170.1 -1079.5 9261.3 -1055Q9352.5 -1030.4 9414.7 -982.6Q9476.9 -934.9 9508.4 -866Q9539.9 -797.2 9539.9 -708.6L9539.9 0L9176.6 0L9176.6 -148.2L9172.6 -148.2Q9139.5 -88.2 9095.4 -51.5Q9051.4 -14.8 8995.1 1.9Q8938.7 18.6 8867.4 18.6ZM8984.6 -218.7Q9035 -218.7 9078.4 -237.7Q9121.8 -256.8 9148.3 -292.1Q9174.8 -327.5 9174.8 -377.1L9174.8 -466.9Q9160.4 -461.4 9142.7 -456Q9125 -450.7 9103.7 -445.8Q9082.3 -441 9056.7 -436.2Q9031.2 -431.4 9001.1 -426.2Q8957.7 -419.1 8925.2 -404.5Q8892.7 -389.8 8874.6 -367.1Q8856.4 -344.3 8856.4 -313.4Q8856.4 -283.7 8872.8 -262.3Q8889.2 -240.9 8917.9 -229.8Q8946.7 -218.7 8984.6 -218.7Z M10012.1 -1490L10012.1 0L9639.7 0L9639.7 -1490L10012.1 -1490Z M0.2 1802.2L0.2 312.2L1097.3 312.2L1097.3 641.2L387.8 641.2L387.8 932L1054.9 932L1054.9 1248.6L387.8 1248.6L387.8 1802.2L0.2 1802.2Z M1135.9 1802.2L1135.9 746.2L1496.8 746.2L1496.8 935.1L1499 935.1Q1528 831.1 1589.2 787.7Q1650.5 744.3 1758.3 744.3Q1786.6 744.3 1809.6 744.6Q1832.6 744.8 1854.9 745L1854.9 1047Q1835.2 1046.7 1793.5 1046.1Q1751.8 1045.6 1714 1045.6Q1652.4 1045.6 1606 1073.5Q1559.5 1101.4 1533.9 1153.5Q1508.3 1205.7 1508.3 1279L1508.3 1802.2L1135.9 1802.2Z M2405 1826.2Q2237 1826.2 2109.3 1758.4Q1981.6 1690.5 1910.5 1566.5Q1839.3 1442.5 1839.3 1274.5Q1839.3 1106.3 1910.5 982.6Q1981.6 859 2109.3 790.6Q2237 722.2 2405 722.2Q2574 722.2 2701.1 790.6Q2828.3 859 2899.5 982.6Q2970.6 1106.3 2970.6 1274.5Q2970.6 1442.5 2899.5 1566.5Q2828.3 1690.5 2701.1 1758.4Q2574 1826.2 2405 1826.2ZM2405 1533.2Q2459.2 1533.2 2502 1503.6Q2544.9 1473.9 2569.7 1416.1Q2594.5 1358.3 2594.5 1274.5Q2594.5 1189.6 2569.7 1132.2Q2544.9 1074.8 2502 1045Q2459.2 1015.3 2405 1015.3Q2351.7 1015.3 2308.4 1045Q2265 1074.7 2240.2 1132.1Q2215.4 1189.6 2215.4 1274.5Q2215.4 1358.4 2240.2 1416.2Q2265 1473.9 2308.3 1503.6Q2351.6 1533.2 2405 1533.2Z M3401.4 1235.3L3401.4 1802.2L3029 1802.2L3029 746.2L3396.6 746.2L3396.6 1033L3345 1033Q3394.4 894.4 3487.3 808.6Q3580.3 722.7 3736.1 722.7Q3852.8 722.7 3932.8 772.7Q4012.9 822.8 4054.4 915.8Q4095.9 1008.8 4095.9 1137.4L4095.9 1802.2L3723.5 1802.2L3723.5 1218.1Q3723.5 1131.2 3682.2 1085.1Q3640.9 1038.9 3564.2 1038.9Q3513.6 1038.9 3477 1060.2Q3440.4 1081.5 3420.9 1125.1Q3401.4 1168.8 3401.4 1235.3Z M4892.8 746.2L4892.8 1031.3L4123.7 1031.3L4123.7 746.2L4892.8 746.2ZM4302.9 458.2L4675.3 458.2L4675.3 1431.8Q4675.3 1480.5 4694.7 1498.9Q4714 1517.2 4770.2 1517.2Q4796.7 1517.2 4836.4 1517.2Q4876.1 1517.2 4892.8 1517.2L4892.8 1802.2Q4866 1802.2 4807.2 1802.2Q4748.5 1802.2 4685.6 1802.2Q4486.2 1802.2 4394.6 1728.7Q4302.9 1655.1 4302.9 1495.6L4302.9 458.2Z M4943.2 1802.2L4943.2 746.2L5315.6 746.2L5315.6 1802.2L4943.2 1802.2ZM5128.5 659.9Q5040 659.9 4983.6 608.2Q4927.2 556.4 4927.2 476.4Q4927.2 396.5 4983.6 345.3Q5040 294.2 5128.1 294.2Q5216.7 294.2 5273.3 345.2Q5329.9 396.3 5329.9 476.8Q5329.9 556.7 5273.3 608.3Q5216.6 659.9 5128.5 659.9Z M5926.1 1826.2Q5763.2 1826.2 5638.3 1755.7Q5513.4 1685.1 5443.5 1560.2Q5373.6 1435.2 5373.6 1274.5Q5373.6 1112.6 5443.4 988Q5513.2 863.5 5635.7 792.9Q5758.2 722.2 5917.6 722.2Q6038.2 722.2 6137.7 761.8Q6237.2 801.4 6309.8 874Q6382.5 946.7 6422.2 1046Q6461.8 1145.3 6461.8 1264.8L6461.8 1364.6L5488.2 1364.6L5488.2 1150L6290.3 1150L6119.6 1190.4Q6119.6 1128.2 6096.5 1083.9Q6073.4 1039.6 6030.7 1015.9Q5988 992.2 5927.3 992.2Q5867.6 992.2 5824.5 1015.9Q5781.4 1039.6 5758.3 1083.9Q5735.2 1128.2 5735.2 1190.4L5735.2 1354.8Q5735.2 1418.9 5759.5 1466Q5783.8 1513 5829.8 1538.1Q5875.9 1563.1 5940.2 1563.1Q5987 1563.1 6024.2 1550.6Q6061.4 1538.1 6087 1515Q6112.6 1492 6124.2 1460.7L6456.2 1460.7Q6437 1567.9 6362.6 1650.1Q6288.2 1732.3 6175.2 1779.3Q6062.2 1826.2 5926.1 1826.2Z M6515.4 1802.2L6515.4 746.2L6876.2 746.2L6876.2 935.1L6878.5 935.1Q6907.5 831.1 6968.7 787.7Q7030 744.3 7137.8 744.3Q7166 744.3 7189.1 744.6Q7212.1 744.8 7234.4 745L7234.4 1047Q7214.7 1046.7 7173 1046.1Q7131.3 1045.6 7093.4 1045.6Q7031.9 1045.6 6985.4 1073.5Q6939 1101.4 6913.4 1153.5Q6887.8 1205.7 6887.8 1279L6887.8 1802.2L6515.4 1802.2Z M7744.8 1828.9Q7593.1 1828.9 7476.9 1783.5Q7360.7 1738.2 7291.8 1655.2Q7223 1572.2 7212.4 1460.7L7579.3 1460.7Q7586.6 1513.4 7628 1545.3Q7669.4 1577.3 7739.1 1577.3Q7804.2 1577.3 7840.4 1555.5Q7876.6 1533.7 7876.6 1498Q7876.6 1467.9 7845.8 1448.6Q7815 1429.4 7753.7 1418.6L7559.1 1385.7Q7401.5 1358.6 7319 1279.2Q7236.4 1199.8 7236.4 1073.4Q7236.4 966.6 7294.6 888.3Q7352.8 810 7462.2 767.5Q7571.6 724.9 7724.2 724.9Q7878.2 724.9 7989.4 769.9Q8100.7 814.9 8162.3 897.1Q8223.9 979.2 8226.9 1093L7886.7 1093Q7885.7 1042.5 7843.6 1008.6Q7801.5 974.7 7738.2 974.7Q7675.6 974.7 7641.3 997.5Q7607.1 1020.3 7607.1 1054Q7607.1 1083.2 7634.8 1103Q7662.5 1122.8 7713 1132L7932.3 1170.2Q8097.5 1199.2 8176 1268.9Q8254.4 1338.6 8254.4 1457Q8254.4 1567.4 8190.9 1651Q8127.3 1734.6 8012.5 1781.8Q7897.7 1828.9 7744.8 1828.9Z M365.8 3578.4Q251.6 3578.4 169.7 3540.6Q87.8 3502.8 43.9 3432Q-0 3361.1 -0 3262.3L160.7 3262.3Q161.4 3317.8 186.1 3357.8Q210.7 3397.7 256.9 3418.9Q303 3440.1 366.9 3440.1Q424.9 3440.1 467.8 3423.7Q510.7 3407.4 534.7 3377.4Q558.7 3347.4 558.7 3306.9Q558.7 3274.3 541.4 3250Q524 3225.7 486.4 3207.6Q448.8 3189.4 387.2 3175.5L287.9 3153Q149.2 3121.6 83.7 3059.6Q18.1 2997.5 18.1 2900.1Q18.1 2817.2 60.5 2755.5Q102.9 2693.7 179.5 2659.3Q256.1 2624.8 358 2624.8Q461 2624.8 536.4 2660.4Q611.7 2696 653.6 2762.1Q695.5 2828.1 698.2 2919.7L542.4 2919.7Q537.6 2846.7 488.1 2805.1Q438.5 2763.5 357.4 2763.5Q306.4 2763.5 266.8 2779.9Q227.2 2796.3 204.6 2825.3Q182.1 2854.2 182.1 2892.1Q182.1 2923.1 199.1 2945.8Q216.1 2968.4 253.2 2985.6Q290.2 3002.9 350.2 3016.7L444.1 3038.3Q515.9 3054.4 568.3 3077.7Q620.7 3101 654.7 3132.7Q688.7 3164.4 705.3 3205.2Q721.8 3246 721.8 3296.8Q721.8 3382.8 678.4 3446.2Q635 3509.5 555.1 3543.9Q475.2 3578.4 365.8 3578.4Z M1182 2908.8L1182 3034.6L777.4 3034.6L777.4 2908.8L1182 2908.8ZM891.7 2730.2L1048.4 2730.2L1048.4 3375.8Q1048.4 3410.5 1062.7 3424.1Q1076.9 3437.7 1115 3437.7Q1130.1 3437.7 1149.9 3437.7Q1169.7 3437.7 1182 3437.7L1182 3563.5Q1165.6 3563.5 1139.4 3563.5Q1113.1 3563.5 1087.7 3563.5Q987.3 3563.5 939.5 3523.1Q891.7 3482.6 891.7 3398.6L891.7 2730.2Z M1513.5 3576.8Q1445.3 3576.8 1392.4 3547.1Q1339.6 3517.4 1309.8 3459.5Q1280.1 3401.7 1280.1 3317.8L1280.1 2908.8L1436.8 2908.8L1436.8 3292.9Q1436.8 3364.9 1471.6 3402.2Q1506.4 3439.5 1568.8 3439.5Q1609.8 3439.5 1642.2 3422.7Q1674.6 3405.9 1693.2 3370.3Q1711.9 3334.7 1711.9 3279L1711.9 2908.8L1868.7 2908.8L1868.7 3563.5L1714.6 3563.5L1714.6 3397L1745.3 3397Q1713.7 3484.1 1656.4 3530.5Q1599 3576.8 1513.5 3576.8Z M2260.5 3576.8Q2175.3 3576.8 2111.4 3533.9Q2047.4 3491.1 2012.2 3414.3Q1977 3337.5 1977 3235.7Q1977 3134.9 2012.5 3058.2Q2048.1 2981.5 2111.9 2938.5Q2175.8 2895.5 2259.6 2895.5Q2302.4 2895.5 2339.2 2907.2Q2376.1 2918.8 2405.8 2942.2Q2435.5 2965.6 2456.4 3001.5L2457.4 3001.5L2457.4 2639.7L2614.1 2639.7L2614.1 3563.5L2459.9 3563.5L2459.9 3463.4L2458.8 3463.4Q2438.4 3501.5 2408.3 3526.7Q2378.2 3552 2340.8 3564.4Q2303.5 3576.8 2260.5 3576.8ZM2297.3 3446Q2348.5 3446 2386.5 3420Q2424.4 3394 2445.2 3346.6Q2466.1 3299.2 2466.1 3235.7Q2466.1 3171.8 2445.2 3124.7Q2424.4 3077.5 2386.5 3051.5Q2348.5 3025.5 2297.3 3025.5Q2249.2 3025.5 2212.6 3049.9Q2176 3074.3 2155.7 3121.1Q2135.4 3167.8 2135.4 3235.7Q2135.4 3303.2 2155.7 3350.2Q2176 3397.1 2212.6 3421.6Q2249.2 3446 2297.3 3446Z M2752.6 3563.5L2752.6 2908.8L2909.3 2908.8L2909.3 3563.5L2752.6 3563.5ZM2830.7 2811.4Q2790.7 2811.4 2763.9 2785.8Q2737.1 2760.2 2737.1 2722.4Q2737.1 2684.5 2763.9 2659.1Q2790.7 2633.7 2830.4 2633.7Q2870.7 2633.7 2897.5 2659.1Q2924.3 2684.5 2924.3 2722.7Q2924.3 2760.3 2897.4 2785.9Q2870.6 2811.4 2830.7 2811.4Z M3340.3 3578.4Q3244.2 3578.4 3171.3 3535.4Q3098.5 3492.3 3057.9 3415.4Q3017.3 3338.6 3017.3 3237Q3017.3 3135 3057.9 3057.8Q3098.5 2980.6 3171.3 2937.3Q3244.2 2893.9 3340.3 2893.9Q3437 2893.9 3509.6 2937.3Q3582.1 2980.6 3622.7 3057.8Q3663.3 3135 3663.3 3237Q3663.3 3338.6 3622.7 3415.4Q3582.1 3492.3 3509.6 3535.4Q3437 3578.4 3340.3 3578.4ZM3340.3 3447.7Q3390.7 3447.7 3427.6 3422.2Q3464.5 3396.7 3484.7 3349.3Q3504.9 3301.8 3504.9 3237Q3504.9 3171.1 3484.7 3123.7Q3464.5 3076.4 3427.6 3050.5Q3390.7 3024.7 3340.3 3024.7Q3290.5 3024.7 3253.3 3050.3Q3216.2 3076 3195.9 3123.5Q3175.7 3171.1 3175.7 3237Q3175.7 3302.2 3195.9 3349.5Q3216.2 3396.7 3253.2 3422.2Q3290.1 3447.7 3340.3 3447.7Z M4028.4 3579.1Q3948.5 3579.1 3885.3 3554Q3822.2 3528.9 3783.8 3480.2Q3745.4 3431.5 3740.2 3361.1L3894.8 3361.1Q3899.9 3408.9 3933.5 3435.3Q3967.1 3461.8 4025.5 3461.8Q4082.3 3461.8 4114.7 3439.4Q4147.2 3417 4147.2 3382.3Q4147.2 3352.7 4123.2 3334.6Q4099.3 3316.5 4057.8 3308L3946.1 3284.9Q3852.3 3265.2 3803.7 3217.6Q3755.1 3170 3755.1 3095.8Q3755.1 3035.8 3787.6 2990.5Q3820.1 2945.1 3879.6 2919.9Q3939 2894.6 4019.1 2894.6Q4098.5 2894.6 4158.7 2921.2Q4219 2947.8 4253.5 2996.5Q4288 3045.2 4289.9 3112.5L4142.8 3112.5Q4142.1 3068.9 4109.1 3040.2Q4076.1 3011.4 4022.7 3011.4Q3971.2 3011.4 3941.3 3034.4Q3911.4 3057.5 3911.4 3090.9Q3911.4 3120.3 3934.5 3138.7Q3957.7 3157.1 3998.3 3166L4116.2 3190.4Q4213.8 3210.9 4259.7 3254.8Q4305.7 3298.7 4305.7 3370.5Q4305.7 3434.3 4270.1 3481.2Q4234.6 3528.1 4171.9 3553.6Q4109.3 3579.1 4028.4 3579.1Z"/>
</svg>
